<svg width="1134" height="206" viewBox="0 0 1134 206" fill="none" xmlns="http://www.w3.org/2000/svg">
<path d="M91.1406 151.436L91.426 156.13L91.7953 156L91.4578 151.514L91.1406 151.436Z" fill="black"/>
<path d="M188.087 101.592C187.681 76.1927 178.043 21.1494 107.338 6.27203C36.7817 -8.57463 1.23331 47.64 8.32028 48.0867C16.2297 48.5854 25.8901 36.2694 29.6546 32.3907C29.7661 33.96 30.0213 35.4787 30.5088 36.7387C30.8401 37.592 31.4109 38.4214 32.6276 37.3854C34.0578 36.168 35.6088 34.028 36.7765 31.6427C37.374 33.5467 38.2516 35.384 39.5453 36.7107C42.2193 39.272 44.5906 24.7267 44.803 24.688C45.0062 24.0814 60.7406 38.7534 82.7994 26.408C82.7994 26.408 84.8516 29.148 90.6052 33.3707C89.3593 35.0627 88.813 36.9747 89.3937 37.5974C89.8614 38.1 92.0224 37.3254 93.7145 35.5427C94.0224 35.748 94.353 35.96 94.6754 36.1707C94.403 36.64 94.1656 37.164 94.0213 37.74C93.4026 40.2134 93.474 42.4014 94.6432 42.6534C95.536 42.8467 96.8874 41.0854 97.5068 38.6134C97.5573 38.412 97.5797 38.212 97.6084 38.0134C99.0281 38.872 100.568 39.76 102.24 40.6734C101.086 40.9867 99.8344 41.532 98.8453 42.508C96.3702 44.952 95.7062 48.1227 96.5136 49.112C96.951 49.6467 100.67 49.308 103.145 46.864C103.3 46.712 103.417 46.5387 103.552 46.376C103.928 49.324 105.281 52.0374 106.813 51.816C107.951 51.652 109.743 48.8614 109.585 45.3867C109.569 45.0254 109.507 44.68 109.435 44.3374C110.849 45.0147 112.312 45.696 113.867 46.3867C113.821 47.3134 113.892 48.3507 114.247 49.376C115.267 52.3174 116.734 54.268 118.167 53.984C119.025 53.8147 119.299 51.1907 118.507 48.368C124.121 50.6907 130.548 53.0574 137.888 55.3934C137.937 56.04 137.973 56.6827 137.993 57.316C138.071 59.9307 137.385 60.948 134.235 61.0187C133.677 61.032 133.116 60.9934 132.56 61.0347C130.122 61.212 127.926 65.0934 128.908 67.3227C129.118 67.7987 129.025 68.5614 128.789 69.0547C127.703 71.3134 127.86 72.136 129.823 73.4484C129.897 73.4979 130.637 73.5974 129.939 74.1798C128.816 75.1036 127.752 76.376 126.443 76.7246C124.192 77.324 121.757 77.3495 119.395 77.3886C116.51 77.4364 113.588 77.4927 110.742 77.1083C105.743 76.4334 101.381 78.2651 96.9718 80.0579C95.5224 80.647 94.5849 82.5474 94.8202 84.5459C95.3536 85.8443 96.1254 80.3912 98.4729 82.1151C100.22 83.1178 100.786 82.2312 101.701 81.3292C104.344 78.8198 113.635 82.949 116.094 84.8922C116.276 84.3459 116.69 83.6803 116.846 83.7208C118.611 84.1834 120.109 83.3412 121.708 82.8979C122.527 82.6719 123.459 82.8588 124.34 82.8588C124.401 83.0579 124.463 83.2574 124.524 83.4568C123.999 83.7126 123.486 83.9984 122.947 84.2188C121.71 84.724 120.319 84.9959 119.254 85.7396C118.278 86.4208 117.525 87.4375 116.753 88.3959C115.584 89.8448 113.636 90.6407 111.854 90.1047C110.545 89.711 107.747 90.2615 107.339 90.6708C106.939 91.0708 107.225 91.5735 107.819 91.3792C109.859 91.0448 110.239 92.6303 111.561 93.1995C112.048 93.4094 113.127 93.9771 112.024 94.9188C111.641 95.2459 111.439 95.9339 112.758 95.9787C113.979 96.0198 115.187 96.0964 115.992 94.8594C117.592 92.1688 119.652 94.424 119.555 94.3823C120.342 93.6126 120.844 92.835 121.556 92.4828C123.119 91.712 124.774 91.1167 126.421 90.5323C127.111 90.288 128.444 90.0047 128.514 90.164C129.006 91.2875 127.823 91.3276 127.23 91.75C125.507 92.976 123.288 93.7235 123.42 96.5224C123.518 98.573 122.909 98.8912 120.928 98.1631C119.33 97.5755 117.848 98.4766 117.83 100.047C117.809 101.88 120.372 103.393 122.005 102.523C122.391 102.318 122.881 101.958 123.209 102.056C124.648 102.482 125.971 102.745 127.025 101.281C127.216 100.878 127.848 101.229 127.879 101.232C128.548 100.052 128.928 99.1782 129.417 98.1479C130.602 95.6511 132.9 94.3432 135.671 94.674C136.173 94.7339 136.676 94.8208 137.18 94.8432C138.355 94.8948 139.583 95.1464 140.693 94.8974C142.725 94.4416 143.728 92.661 144.623 90.9979C145.833 88.75 146.572 86.2146 147.985 84.1203C151.588 76.573 143.633 70.44 146.487 67.3734C143.511 63.1614 145.043 58.3734 145.417 57.664L148.244 58.488C151.401 59.3747 154.684 60.2534 158.135 61.116C158.135 61.116 158.624 63.648 160.227 67.1814C159.78 67.8454 159.351 68.6947 159.219 69.6774C158.908 71.972 159.496 73.886 160.327 74.0563C161.065 74.2074 161.735 72.9255 162.32 71.1254C164.287 74.3719 167.12 77.9151 171.145 81.0068C170.756 81.1402 170.367 81.3047 169.996 81.5438C168.052 82.7995 167.299 84.5698 167.389 85.2328C167.463 85.7672 169.523 85.5896 171.396 84.6068C171.305 84.8459 171.227 85.0938 171.173 85.3547C170.704 87.6214 171.241 89.6016 171.975 89.7995C172.484 89.937 173.369 88.838 174.096 87.1698C175.577 100.854 180.113 117.771 166.568 129.659C156.739 138.286 163.633 153.007 150.832 155.688C129.762 160.1 120.836 169.228 109.808 185.908C108.767 183.239 106.939 180.437 108.364 177.907C113.122 170.379 106.458 168.802 108.108 161.004C109.351 160.548 108.592 158.881 108.396 157.996C109.436 155.647 110.986 152.597 108.369 151.075C107.907 150.805 107.31 150.936 106.971 151.348C106.519 151.898 106.1 152.595 105.606 153.071C105.218 153.583 105.079 153.586 104.501 153.347C103.657 153.347 102.956 154.079 102.396 154.663C101.849 155.488 101.109 156.549 100.889 157.583C100.785 158.072 100.938 158.571 101.188 159.003C101.488 159.519 101.502 160.127 101.522 160.703C101.414 164.224 99.977 167.553 98.0896 170.48C95.174 175.224 90.488 178.607 87.0994 182.919C86.7426 183.372 86.4937 183.903 86.353 184.463C85.7844 186.721 84.2906 188.573 82.2906 188.717C81.6849 188.149 81.3062 187.605 79.2145 186.733C78.1317 186.08 78.174 184.429 79.2874 183.904C79.8609 183.633 80.1306 183.31 80.0765 182.647C80.0344 182.122 80.1406 181.584 80.213 181.057C80.6969 177.544 81.6724 175.427 83.0776 172.169C83.4713 171.256 83.6942 170.269 83.965 169.412L84.7797 165.616C84.8516 165.248 84.9484 164.727 85.0552 164.207C85.564 161.712 85.7869 159.195 85.8317 156.663C86.5254 157.284 87.3636 158.004 87.7328 158.181C88.476 158.539 88.5254 159.212 90.1958 158.937C89.6948 160.168 89.1937 161.397 88.6937 162.628C88.577 162.868 88.727 163 88.8656 162.761C89.5469 161.437 90.1046 159.727 90.6469 158.728C90.6469 158.728 90.765 158.688 90.8021 158.671C90.8688 158.639 90.9708 158.597 91.0218 158.616C90.801 159.786 90.3724 162.027 90.3145 162.298C90.2708 162.504 90.5073 162.621 90.562 162.349L91.3136 158.616C91.4442 158.62 91.4125 158.619 91.5432 158.622L92.0812 162.325C92.0948 162.459 92.3421 162.48 92.3218 162.292C92.2754 161.827 92.2328 161.361 92.1828 160.897C92.112 160.24 92.0254 159.585 91.9702 158.928C91.964 158.857 91.927 158.661 91.9494 158.583C91.9494 158.583 92.0937 158.479 92.262 158.349C92.7156 157.998 92.9656 157.744 93.386 157.353C93.925 156.853 93.8401 156.297 93.1917 155.98C93.4917 155.051 93.2937 154.761 92.3598 154.853C92.9745 153.716 93.575 152.604 94.175 151.493C94.212 151.508 93.615 152.924 94.4432 153.068C95.0349 153.172 95.1478 152.459 94.9369 151.496C95.1609 152.102 96.0442 152.725 96.3453 152.365C96.6437 152.008 96.003 151.356 95.4068 150.996C96.012 151.295 96.7312 150.925 96.7312 150.469C96.7312 150.075 95.986 149.657 95.2 150.021C95.4797 149.359 95.413 148.717 94.353 148.483C94.9136 148.388 95.4521 148.283 95.2598 147.756C95.1672 147.502 94.5426 147.212 93.5489 147.686C94.3844 147.14 94.8781 146.595 94.6218 146.267C94.425 146.015 93.4385 146.397 93.214 147.053C93.4864 145.761 93.0817 145.469 92.8021 145.472C92.5005 145.473 92.0745 146.073 92.6838 147.208C92.4781 146.9 91.6953 146.021 91.3322 146.595C90.9306 147.227 91.9516 147.685 92.2833 147.715C91.8708 147.898 91.5145 148.357 91.7724 148.84C92.1302 149.248 92.7792 148.849 92.9458 148.532C92.8708 148.896 92.6828 149.753 92.6073 150.119C92.327 149.856 91.7844 150.065 91.5989 150.215C91.7921 149.881 92.0724 149.347 91.5636 149.279C91.1254 149.22 91.039 149.71 91.0458 150.172C90.977 150.055 90.8406 149.481 90.6052 149.436C89.9921 149.348 90.1838 150.028 90.5984 150.636C90.1073 150.479 89.8442 150.733 89.8754 150.963C89.8969 151.136 90.274 151.32 90.8442 151.207C90.5969 151.396 89.9734 151.455 90.1073 151.769C90.2125 151.988 90.6688 152.128 90.9932 151.672C90.9932 151.672 91.1406 152.071 91.5218 151.864C91.9021 151.657 91.5218 150.912 91.5218 150.912C91.5218 150.912 92.2672 151.04 92.4573 150.769L91.3344 154.998C90.6718 154.936 89.9557 154.485 89.3584 153.84C87.8286 152.188 87.3286 151.109 87.0921 149.149C87.2584 147.768 87.2254 146.372 86.9557 144.98C86.5213 142.743 85.6672 140.586 84.974 138.403C84.6396 137.348 84.0708 136.437 83.1745 135.745C82.8917 135.527 82.2948 135.296 82.075 135.009C81.6161 134.41 81.7625 133.776 82.0412 133.167C82.2806 132.642 82.7912 132.672 83.263 132.678C83.5156 132.681 83.7688 132.739 84.0202 132.733C84.7036 132.72 85.3948 132.741 86.0677 132.645C86.6322 132.564 86.9917 132.063 86.8729 131.542C86.7281 130.906 87.6046 130.651 87.4526 130.058C87.1729 129.385 87.4546 128.866 86.8161 128.529C86.7958 128.518 86.8521 128.33 86.8942 128.235C87.0776 127.815 86.962 127.586 86.5188 127.41C86.2688 127.312 85.8912 126.885 85.9286 126.823C86.1254 126.498 85.9473 126.216 85.9229 125.93C85.8702 125.31 85.7568 124.696 85.6917 124.077C85.6494 123.682 85.6718 123.28 85.627 122.886C85.5901 122.558 85.577 122.189 85.4145 121.922C85.0188 121.273 84.6 120.625 84.0973 120.06C83.7688 119.691 83.3625 119.404 82.9136 119.198C82.3182 118.925 81.7609 118.714 81.1426 118.516C80.5822 118.336 79.9421 118.512 79.3401 118.267C79.1478 118.189 78.5224 118.62 78.0666 118.078C77.9562 117.905 77.5765 118.022 77.4084 118.078C76.8354 118.268 76.403 118.37 75.8385 118.58C75.2364 118.803 74.5964 118.919 73.9901 119.114C73.1833 119.372 72.7745 120.068 72.0536 120.365C71.7817 120.476 71.5421 120.809 71.4136 121.097C71.1036 121.787 70.8136 122.496 70.6245 123.225C70.5057 123.684 70.762 124.209 70.7645 124.695C70.7677 125.286 70.4786 125.901 70.6489 126.442C70.8505 127.083 71.0844 127.689 71.0921 128.379C71.0953 128.623 71.326 128.885 71.4989 129.103C71.7245 129.387 72.0177 129.618 72.2417 129.902C72.5224 130.258 72.739 130.665 73.0292 131.011C73.177 131.187 73.4338 131.268 73.6281 131.41C74.1478 131.79 74.6562 132.184 75.1802 132.558C75.2713 132.623 75.438 132.664 75.5484 132.645C75.8896 132.587 76.1344 132.637 76.2833 133.003C76.4374 133.377 76.2754 133.595 76.0292 133.853C72.8505 137.207 70.1526 140.905 69.4109 145.471C69.4098 145.477 69.4088 145.484 69.4078 145.491C69.153 147.116 69.1828 148.775 69.3265 150.414L69.9281 157.272C69.9306 157.377 69.9344 157.484 69.9369 157.589C69.888 159.339 70.1864 160.986 71.1854 162.451C71.7546 163.285 72.0734 164.261 72.0202 165.271C71.939 166.816 71.7306 168.355 71.7306 169.903C71.7306 171.972 71.6098 174.067 71.3052 176.12C71.1937 176.871 71.1136 177.627 71.1114 178.385C71.1036 180.764 71.2688 180.82 71.3598 183.176C71.3792 183.677 71.6172 184.039 72.1349 184.119C72.6188 184.193 72.7677 184.496 72.7609 184.921C72.7546 185.304 72.7177 187.967 72.6802 188.348C72.6188 188.975 72.4984 189.6 72.4792 190.228C71.3193 190.316 70.2026 190.414 69.1188 190.515C68.9786 190.473 68.839 190.432 68.6984 190.398C69.0297 189.451 69.2942 189.156 67.2541 187.721C65.565 186.533 63.5005 184.736 63.063 182.184C63.0036 181.84 63.0453 180.755 62.9306 180.431C62.8172 180.11 62.4693 180.573 62.3754 180.249C61.053 175.692 61.5822 170.835 61.3084 166.114C61.2964 165.904 61.3806 164.584 61.4812 163.198C61.6344 161.096 61.5984 158.984 61.4552 156.88C61.3041 154.664 61.2421 148.872 61.6708 144.416C61.6708 144.416 62.765 144.477 63.1546 144.297C63.5442 144.116 63.7754 133.177 62.9369 126.913C62.9369 126.913 64.0229 126.49 64.2453 125.955C64.336 125.735 62.5697 119.938 62.0213 110.347C61.9588 109.253 61.7573 105.534 61.4125 101.144L64.301 101.893C64.4026 101.92 64.5088 101.866 64.5473 101.768L64.886 100.906C64.886 100.906 68.7786 102.155 70.0417 101.915C71.3052 101.675 73.1322 99.6636 74.2104 99.1042C74.8661 98.7646 75.4874 98.3536 76.1084 97.9511C78.225 96.5771 80.2562 95.047 82.4693 93.8536C84.6806 92.6604 87.2281 91.9719 88.0046 89.1542C88.1718 88.5495 88.7458 87.6443 88.2588 87.2719C87.5338 86.7027 87.2354 88.1131 86.686 88.4115C86.312 88.614 85.8917 88.6386 85.5136 88.8214C84.9708 89.0839 84.0172 90.1068 83.7792 89.388C83.5412 88.6698 84.4297 88.0151 84.7817 87.449C84.9098 87.2427 85.4489 85.5579 84.0036 86.6588C82.9224 87.7886 81.5672 88.8172 80.9432 90.1746C80.415 91.323 79.7516 92.0588 78.7469 92.5568C77.3188 93.2651 74.3912 94.9074 71.5374 95.95C71.026 96.137 70.474 96.174 69.938 96.076C68.277 95.7724 67.1516 94.9099 67.1516 94.9099C67.1516 94.9099 67.413 94.397 67.2312 94.3292C64.0265 92.0766 61.2921 85.2172 58.3781 82.5224C58.2792 82.3984 58.1797 82.297 58.0765 82.2459C56.2536 81.4292 51.2885 82.923 52.1926 80.4036C52.4469 79.8792 52.8593 78.9271 54.239 78.7714C55.1166 78.676 56.3098 78.2818 56.6588 77.9323C56.9864 77.5979 57.1 77.1115 56.9942 76.6506C56.8953 76.223 56.8078 76.1246 56.9797 75.9552C57.1453 75.7916 57.2661 75.5151 57.127 75.3224C57.0145 75.1724 56.8098 75.0828 56.6926 75.0454C56.9473 75.0271 57.2125 74.9194 57.3604 74.764C57.5833 74.5271 57.5494 74.3255 57.4516 73.862C57.374 73.4959 57.338 73.3698 57.3948 73.2787C57.5494 73.037 57.9926 72.9579 58.3084 72.5588C58.6505 72.1254 58.3718 71.7067 57.9421 71.3307C57.5458 70.9827 56.5344 69.852 56.4057 69.2134C56.2906 68.6267 56.3573 67.8814 56.0869 67.1494C55.7989 66.364 54.9958 65.4347 54.4645 65.0227C54.0073 64.6694 53.7989 64.456 53.8276 64.0907C53.9057 63.048 53.0978 62.2307 52.1036 62.1974C51.1254 62.1694 50.6869 62.3987 48.4964 62.3814C46.4688 62.3667 45.0084 62.8374 43.6292 64.0067C42.6349 64.8467 41.5136 66.1427 40.95 68.1694C40.9396 68.2 40.9276 68.2187 40.9166 68.2507C39.6661 72.04 36.9234 70.0707 33.8874 73.1646C32.1874 74.7094 31.4406 78.0698 33.4568 81.4287C34.3885 82.9807 35.0464 83.7782 35.3245 85.0938C35.3917 85.4298 35.6229 85.2266 35.7041 85.1818C36.7806 84.588 37.0614 84.4058 37.9453 83.7672C39.4989 82.6454 40.1688 80.2916 39.053 77.8792C37.7869 75.1407 39.1729 74.1298 39.1729 74.1298C39.7197 73.6156 40.4906 73.3459 41.2494 73.2042C41.3197 73.4402 41.601 74.1792 42.6458 75.4694C43.8521 76.9522 44.6374 78.1443 44.2964 79.7099C44.0005 81.0683 43.5926 82.7798 41.7682 83.447C39.9432 84.1146 37.8526 85.5344 37.3797 86.6604C36.4958 88.7698 36.1421 90.6511 36.5369 92.9099C37.0412 95.7959 36.6984 97.1766 37.0412 100.605C37.0869 101.064 37.4437 100.614 37.4478 100.802C37.5276 104.44 37.6364 108.062 38.1202 108.791C39.014 110.138 39.8718 109.965 40.1453 110.623C41.0125 113.348 40.0921 113.92 39.9396 116.943C39.8062 119.583 39.665 121.202 39.1754 123.631C39.1312 123.853 40.0125 124.222 40.0541 124.204C39.5322 127.826 40.3406 130.994 39.5724 133.829L38.651 143.273L39.1322 143.359C38.0338 146.841 36.2412 153.837 35.5234 158.736C34.8921 161.202 33.9708 162.689 33.8636 165.491C33.7994 167.161 34.053 171.147 34.1745 172.214C34.2177 172.592 34.2516 172.984 34.2708 173.363C32.9265 171.596 31.0292 169.737 28.1265 167.879C22.2306 164.103 15.2937 161.652 8.46456 159.11C6.23123 158.28 0.858308 156.629 5.81456 162.779C17.3937 177.143 51.1114 210.874 105.112 199.947C173.111 186.185 188.479 126.159 188.087 101.592ZM57.801 180.753C57.8182 180.883 57.6869 180.816 57.6958 181.049C57.7385 182.303 57.6754 183.745 57.1734 185.961C56.2584 185.948 57.4333 188.216 55.9682 188.276C55.9354 188.268 55.9016 188.26 55.8693 188.251C55.1254 187.998 49.4568 186.108 46.9781 186.255C46.55 186.28 45.9213 185.371 45.8869 184.864C45.7598 182.951 44.8104 182.172 42.9864 181.691C41.9802 181.427 40.3448 179.083 40.276 178.998C39.4697 178.009 39.1917 175.985 38.8994 174.986C38.8453 174.798 38.3838 174.612 38.3442 174.424C37.6458 171.149 39.7432 166.779 40.0724 165.589C40.4078 164.38 41.0494 163.197 41.763 162.145C45.2588 155.112 47.0062 148.044 48.0562 144.947L49.138 145.139L50.401 139.795C50.4317 139.784 50.4604 139.768 50.4932 139.76L51.1229 145.26L52.0306 145.186C52.2958 149.849 52.5036 159.056 54.3114 165.076C54.4682 167.343 54.5693 169.936 54.8625 172.508C54.986 173.598 55.3912 174.702 55.877 175.696C57.0234 178.045 57.624 179.389 57.801 180.753ZM91.8546 154.895L93.3614 148.644C93.3614 148.644 93.7584 148.883 94.1546 148.771C94.1546 148.771 93.5516 149.659 94.1546 150.183C94.1546 150.183 93.4729 149.992 93.2349 150.357C92.9969 150.722 93.2666 151.151 93.9645 151.04L91.8546 154.895ZM89.9478 189.353C87.839 189.42 85.6546 189.5 83.4588 189.595C83.436 189.573 83.4136 189.551 83.3901 189.531C85.2114 189.127 86.7838 187.753 87.3937 185.884C87.8745 187.761 88.739 188.888 89.9478 189.353ZM107.816 188.961C107.802 188.984 107.788 189.004 107.774 189.027C107.774 189.027 104.301 189.037 99.1833 189.129C101.944 187.523 103.231 184.564 99.0421 182.672C100.673 182 102.157 181.517 103.722 180.657C105.204 183.312 107.293 185.898 107.816 188.961ZM127.022 176.959C125.662 178.564 124.423 180.46 123.426 182.156C121.879 184.791 119.509 186.844 116.664 187.96L116.628 187.975C118.754 183.428 122.611 179.804 127.022 176.959ZM152.076 164.988C143.461 171.924 134.916 177.327 128.482 181.016C130.934 167.948 151.744 164.643 152.076 164.988ZM135.883 45.9734C105.803 43.0507 87.9098 25.0854 87.9098 25.0854C120.973 19.1814 130.66 35.3414 134.535 42.9294L134.292 42.8134C134.4 42.876 134.485 42.956 134.585 43.0254C135.496 44.8214 135.883 45.9734 135.883 45.9734ZM172.707 76.0916C165.016 69.8187 164.004 62.7347 164.004 62.7347C169.468 63.9494 172.707 75.687 172.707 76.0916Z" fill="black"/>
<path d="M235.453 35.7632H241.961V74.1819C241.961 77.6108 241.331 80.5237 240.071 82.9205C238.812 85.3173 237.036 87.1368 234.744 88.3789C232.452 89.621 229.749 90.2421 226.635 90.2421C223.696 90.2421 221.081 89.7085 218.789 88.6413C216.497 87.5567 214.695 86.0171 213.383 84.0227C212.071 82.0283 211.415 79.6577 211.415 76.9111H217.818C217.818 78.4331 218.194 79.7627 218.946 80.8999C219.716 82.0195 220.766 82.8943 222.095 83.5241C223.425 84.1539 224.938 84.4688 226.635 84.4688C228.507 84.4688 230.099 84.0752 231.411 83.2879C232.723 82.5006 233.721 81.346 234.403 79.8239C235.103 78.2844 235.453 76.4037 235.453 74.1819V35.7632ZM266.025 90.452C263.471 90.452 261.153 89.9709 259.071 89.0087C256.989 88.029 255.335 86.6207 254.111 84.7837C252.886 82.9293 252.274 80.6899 252.274 78.0657C252.274 75.7564 252.729 73.8844 253.638 72.4499C254.548 70.9978 255.764 69.8606 257.286 69.0384C258.808 68.2161 260.488 67.6038 262.325 67.2014C264.179 66.7816 266.042 66.4492 267.914 66.2042C270.364 65.8893 272.349 65.6531 273.871 65.4957C275.411 65.3207 276.53 65.0321 277.23 64.6297C277.948 64.2273 278.306 63.5275 278.306 62.5303V62.3204C278.306 59.7311 277.598 57.7192 276.181 56.2847C274.781 54.8501 272.655 54.1328 269.804 54.1328C266.847 54.1328 264.529 54.7801 262.85 56.0747C261.17 57.3693 259.989 58.7514 259.307 60.221L253.429 58.1216C254.478 55.6723 255.878 53.7654 257.627 52.4008C259.394 51.0187 261.319 50.0565 263.401 49.5142C265.5 48.9543 267.564 48.6744 269.594 48.6744C270.888 48.6744 272.375 48.8319 274.055 49.1468C275.752 49.4442 277.388 50.0652 278.962 51.01C280.554 51.9547 281.875 53.3805 282.925 55.2875C283.975 57.1944 284.499 59.7486 284.499 62.9502V89.5073H278.306V84.0489H277.991C277.571 84.9237 276.872 85.8597 275.892 86.8569C274.912 87.8541 273.609 88.7026 271.982 89.4024C270.355 90.1021 268.369 90.452 266.025 90.452ZM266.97 84.8887C269.419 84.8887 271.483 84.4076 273.163 83.4454C274.86 82.4832 276.137 81.241 276.994 79.719C277.869 78.1969 278.306 76.5961 278.306 74.9166V69.2483C278.044 69.5632 277.466 69.8519 276.574 70.1143C275.699 70.3592 274.685 70.5779 273.53 70.7704C272.393 70.9453 271.282 71.1028 270.197 71.2427C269.13 71.3652 268.264 71.4702 267.599 71.5576C265.99 71.7676 264.485 72.1087 263.086 72.5811C261.704 73.0359 260.584 73.727 259.727 74.6542C258.887 75.564 258.467 76.8061 258.467 78.3806C258.467 80.5325 259.263 82.1595 260.855 83.2617C262.465 84.3464 264.503 84.8887 266.97 84.8887ZM301.996 65.2595V89.5073H295.803V49.1993H301.786V55.4974H302.311C303.256 53.4505 304.691 51.806 306.615 50.5639C308.539 49.3042 311.024 48.6744 314.068 48.6744C316.797 48.6744 319.185 49.2342 321.232 50.3539C323.279 51.4561 324.871 53.1356 326.008 55.3924C327.145 57.6318 327.714 60.4659 327.714 63.8949V89.5073H321.521V64.3148C321.521 61.1482 320.698 58.6814 319.054 56.9145C317.409 55.13 315.152 54.2378 312.283 54.2378C310.306 54.2378 308.539 54.6664 306.982 55.5236C305.443 56.3809 304.227 57.6318 303.335 59.2763C302.442 60.9208 301.996 62.9152 301.996 65.2595ZM355.931 90.3471C352.047 90.3471 348.697 89.4898 345.88 87.7753C343.081 86.0433 340.92 83.6291 339.398 80.5325C337.894 77.4184 337.141 73.797 337.141 69.6682C337.141 65.5394 337.894 61.9005 339.398 58.7514C340.92 55.5849 343.037 53.1181 345.749 51.3511C348.478 49.5666 351.662 48.6744 355.301 48.6744C357.4 48.6744 359.473 49.0243 361.52 49.7241C363.567 50.4239 365.43 51.5611 367.11 53.1356C368.789 54.6926 370.128 56.757 371.125 59.3288C372.122 61.9005 372.621 65.0671 372.621 68.8284V71.4527H341.55V66.0993H366.323C366.323 63.8249 365.868 61.7955 364.958 60.0111C364.066 58.2266 362.789 56.8182 361.127 55.7861C359.482 54.7539 357.54 54.2378 355.301 54.2378C352.834 54.2378 350.7 54.8501 348.898 56.0747C347.113 57.2819 345.74 58.8564 344.778 60.7983C343.816 62.7402 343.334 64.8221 343.334 67.044V70.6129C343.334 73.657 343.859 76.2375 344.909 78.3544C345.976 80.4538 347.454 82.0545 349.344 83.1567C351.233 84.2414 353.429 84.7837 355.931 84.7837C357.558 84.7837 359.027 84.5563 360.339 84.1014C361.669 83.6291 362.815 82.9293 363.777 82.002C364.739 81.0573 365.483 79.8852 366.008 78.4856L371.991 80.1651C371.361 82.1945 370.303 83.979 368.816 85.5185C367.329 87.0406 365.492 88.2302 363.305 89.0874C361.118 89.9272 358.66 90.3471 355.931 90.3471ZM440.404 52.5583C439.827 50.7913 439.066 49.208 438.121 47.8084C437.194 46.3913 436.083 45.1842 434.789 44.187C433.511 43.1898 432.059 42.4288 430.432 41.9039C428.805 41.3791 427.021 41.1166 425.079 41.1166C421.895 41.1166 419 41.9389 416.393 43.5834C413.786 45.2279 411.713 47.651 410.173 50.8525C408.634 54.0541 407.864 57.9817 407.864 62.6353C407.864 67.2889 408.643 71.2165 410.2 74.418C411.757 77.6196 413.865 80.0426 416.524 81.6871C419.183 83.3317 422.175 84.1539 425.499 84.1539C428.578 84.1539 431.29 83.4979 433.634 82.1857C435.996 80.8561 437.833 78.9842 439.145 76.5699C440.474 74.1381 441.139 71.2777 441.139 67.9887L443.134 68.4086H426.968V62.6353H447.437V68.4086C447.437 72.8348 446.493 76.6836 444.603 79.9552C442.731 83.2267 440.142 85.7634 436.836 87.5654C433.546 89.3499 429.768 90.2421 425.499 90.2421C420.74 90.2421 416.559 89.1224 412.955 86.8831C409.369 84.6438 406.569 81.4597 404.558 77.3309C402.563 73.2022 401.566 68.3036 401.566 62.6353C401.566 58.384 402.135 54.5614 403.272 51.1674C404.426 47.7559 406.053 44.8518 408.153 42.455C410.252 40.0582 412.736 38.2213 415.606 36.9441C418.475 35.667 421.633 35.0284 425.079 35.0284C427.913 35.0284 430.555 35.4571 433.004 36.3143C435.471 37.1541 437.667 38.3525 439.591 39.9095C441.533 41.449 443.151 43.2948 444.446 45.4466C445.74 47.581 446.633 49.9515 447.122 52.5583H440.404ZM474.119 90.3471C470.48 90.3471 467.287 89.4811 464.541 87.7491C461.812 86.0171 459.677 83.5941 458.138 80.48C456.616 77.3659 455.855 73.727 455.855 69.5632C455.855 65.3645 456.616 61.6993 458.138 58.5677C459.677 55.4362 461.812 53.0044 464.541 51.2724C467.287 49.5404 470.48 48.6744 474.119 48.6744C477.758 48.6744 480.942 49.5404 483.671 51.2724C486.418 53.0044 488.552 55.4362 490.074 58.5677C491.614 61.6993 492.384 65.3645 492.384 69.5632C492.384 73.727 491.614 77.3659 490.074 80.48C488.552 83.5941 486.418 86.0171 483.671 87.7491C480.942 89.4811 477.758 90.3471 474.119 90.3471ZM474.119 84.7837C476.883 84.7837 479.158 84.0752 480.942 82.6581C482.727 81.241 484.047 79.3778 484.905 77.0685C485.762 74.7592 486.191 72.2574 486.191 69.5632C486.191 66.869 485.762 64.3585 484.905 62.0317C484.047 59.7049 482.727 57.8242 480.942 56.3896C479.158 54.9551 476.883 54.2378 474.119 54.2378C471.355 54.2378 469.081 54.9551 467.296 56.3896C465.512 57.8242 464.191 59.7049 463.334 62.0317C462.476 64.3585 462.048 66.869 462.048 69.5632C462.048 72.2574 462.476 74.7592 463.334 77.0685C464.191 79.3778 465.512 81.241 467.296 82.6581C469.081 84.0752 471.355 84.7837 474.119 84.7837ZM518.213 90.3471C514.574 90.3471 511.381 89.4811 508.634 87.7491C505.905 86.0171 503.771 83.5941 502.231 80.48C500.709 77.3659 499.948 73.727 499.948 69.5632C499.948 65.3645 500.709 61.6993 502.231 58.5677C503.771 55.4362 505.905 53.0044 508.634 51.2724C511.381 49.5404 514.574 48.6744 518.213 48.6744C521.852 48.6744 525.036 49.5404 527.765 51.2724C530.512 53.0044 532.646 55.4362 534.168 58.5677C535.707 61.6993 536.477 65.3645 536.477 69.5632C536.477 73.727 535.707 77.3659 534.168 80.48C532.646 83.5941 530.512 86.0171 527.765 87.7491C525.036 89.4811 521.852 90.3471 518.213 90.3471ZM518.213 84.7837C520.977 84.7837 523.251 84.0752 525.036 82.6581C526.82 81.241 528.141 79.3778 528.998 77.0685C529.855 74.7592 530.284 72.2574 530.284 69.5632C530.284 66.869 529.855 64.3585 528.998 62.0317C528.141 59.7049 526.82 57.8242 525.036 56.3896C523.251 54.9551 520.977 54.2378 518.213 54.2378C515.448 54.2378 513.174 54.9551 511.39 56.3896C509.605 57.8242 508.284 59.7049 507.427 62.0317C506.57 64.3585 506.141 66.869 506.141 69.5632C506.141 72.2574 506.57 74.7592 507.427 77.0685C508.284 79.3778 509.605 81.241 511.39 82.6581C513.174 84.0752 515.448 84.7837 518.213 84.7837ZM561.152 90.3471C557.793 90.3471 554.827 89.4986 552.255 87.8016C549.684 86.0871 547.672 83.6728 546.22 80.5587C544.768 77.4272 544.042 73.727 544.042 69.4583C544.042 65.2245 544.768 61.5506 546.22 58.4365C547.672 55.3224 549.692 52.9169 552.282 51.2199C554.871 49.5229 557.862 48.6744 561.256 48.6744C563.881 48.6744 565.954 49.1118 567.476 49.9865C569.015 50.8438 570.188 51.8235 570.992 52.9257C571.815 54.0103 572.453 54.9026 572.908 55.6024H573.433V35.7632H579.626V89.5073H573.643V83.3142H572.908C572.453 84.0489 571.806 84.9762 570.966 86.0958C570.126 87.198 568.928 88.1865 567.371 89.0612C565.814 89.9185 563.741 90.3471 561.152 90.3471ZM561.991 84.7837C564.476 84.7837 566.575 84.1364 568.289 82.8418C570.004 81.5297 571.307 79.719 572.199 77.4097C573.092 75.0828 573.538 72.3974 573.538 69.3533C573.538 66.3442 573.1 63.7112 572.226 61.4544C571.351 59.1801 570.056 57.4131 568.342 56.1534C566.627 54.8763 564.511 54.2378 561.991 54.2378C559.367 54.2378 557.18 54.9113 555.431 56.2584C553.699 57.588 552.395 59.3987 551.521 61.6906C550.663 63.9649 550.235 66.5191 550.235 69.3533C550.235 72.2224 550.672 74.8292 551.547 77.1735C552.439 79.5003 553.751 81.3547 555.483 82.7368C557.233 84.1014 559.402 84.7837 561.991 84.7837ZM603.69 90.452C601.136 90.452 598.818 89.9709 596.736 89.0087C594.654 88.029 593.001 86.6207 591.776 84.7837C590.552 82.9293 589.939 80.6899 589.939 78.0657C589.939 75.7564 590.394 73.8844 591.304 72.4499C592.214 70.9978 593.429 69.8606 594.952 69.0384C596.474 68.2161 598.153 67.6038 599.99 67.2014C601.844 66.7816 603.708 66.4492 605.58 66.2042C608.029 65.8893 610.015 65.6531 611.537 65.4957C613.076 65.3207 614.196 65.0321 614.896 64.6297C615.613 64.2273 615.972 63.5275 615.972 62.5303V62.3204C615.972 59.7311 615.263 57.7192 613.846 56.2847C612.446 54.8501 610.321 54.1328 607.469 54.1328C604.512 54.1328 602.194 54.7801 600.515 56.0747C598.835 57.3693 597.654 58.7514 596.972 60.221L591.094 58.1216C592.144 55.6723 593.543 53.7654 595.293 52.4008C597.06 51.0187 598.984 50.0565 601.066 49.5142C603.165 48.9543 605.23 48.6744 607.259 48.6744C608.554 48.6744 610.041 48.8319 611.72 49.1468C613.417 49.4442 615.053 50.0652 616.628 51.01C618.22 51.9547 619.54 53.3805 620.59 55.2875C621.64 57.1944 622.165 59.7486 622.165 62.9502V89.5073H615.972V84.0489H615.657C615.237 84.9237 614.537 85.8597 613.557 86.8569C612.578 87.8541 611.274 88.7026 609.647 89.4024C608.02 90.1021 606.034 90.452 603.69 90.452ZM604.635 84.8887C607.084 84.8887 609.149 84.4076 610.828 83.4454C612.525 82.4832 613.802 81.241 614.659 79.719C615.534 78.1969 615.972 76.5961 615.972 74.9166V69.2483C615.709 69.5632 615.132 69.8519 614.24 70.1143C613.365 70.3592 612.35 70.5779 611.195 70.7704C610.058 70.9453 608.947 71.1028 607.863 71.2427C606.796 71.3652 605.93 71.4702 605.265 71.5576C603.655 71.7676 602.151 72.1087 600.751 72.5811C599.369 73.0359 598.249 73.727 597.392 74.6542C596.552 75.564 596.132 76.8061 596.132 78.3806C596.132 80.5325 596.928 82.1595 598.52 83.2617C600.13 84.3464 602.168 84.8887 604.635 84.8887ZM639.662 35.7632V89.5073H633.469V35.7632H639.662ZM657.198 35.7632V89.5073H651.005V35.7632H657.198ZM696.673 35.7632V89.5073H690.165V35.7632H696.673ZM715.075 65.2595V89.5073H708.882V49.1993H714.865V55.4974H715.39C716.335 53.4505 717.77 51.806 719.694 50.5639C721.618 49.3042 724.103 48.6744 727.147 48.6744C729.876 48.6744 732.264 49.2342 734.311 50.3539C736.358 51.4561 737.95 53.1356 739.087 55.3924C740.224 57.6318 740.793 60.4659 740.793 63.8949V89.5073H734.6V64.3148C734.6 61.1482 733.777 58.6814 732.133 56.9145C730.488 55.13 728.231 54.2378 725.362 54.2378C723.385 54.2378 721.618 54.6664 720.061 55.5236C718.522 56.3809 717.306 57.6318 716.414 59.2763C715.521 60.9208 715.075 62.9152 715.075 65.2595ZM780.661 58.2266L775.098 59.8011C774.748 58.8739 774.232 57.9729 773.55 57.0982C772.885 56.2059 771.975 55.4711 770.82 54.8938C769.666 54.3165 768.187 54.0278 766.385 54.0278C763.919 54.0278 761.863 54.5964 760.219 55.7336C758.592 56.8532 757.778 58.2791 757.778 60.0111C757.778 61.5506 758.338 62.7665 759.458 63.6587C760.577 64.551 762.327 65.2945 764.706 65.8893L770.689 67.3589C774.293 68.2336 776.979 69.572 778.746 71.3739C780.513 73.1584 781.396 75.459 781.396 78.2756C781.396 80.585 780.731 82.6494 779.402 84.4688C778.09 86.2883 776.253 87.7229 773.891 88.7725C771.529 89.8222 768.782 90.3471 765.651 90.3471C761.539 90.3471 758.137 89.4548 755.442 87.6704C752.748 85.8859 751.043 83.2792 750.325 79.8502L756.203 78.3806C756.763 80.55 757.822 82.177 759.379 83.2617C760.953 84.3464 763.009 84.8887 765.546 84.8887C768.432 84.8887 770.724 84.2764 772.421 83.0517C774.136 81.8096 774.993 80.3225 774.993 78.5906C774.993 77.191 774.503 76.0188 773.523 75.0741C772.544 74.1119 771.039 73.3946 769.01 72.9222L762.292 71.3477C758.6 70.473 755.889 69.1171 754.157 67.2802C752.442 65.4257 751.585 63.1076 751.585 60.326C751.585 58.0516 752.223 56.0397 753.501 54.2902C754.795 52.5408 756.553 51.1674 758.775 50.1702C761.015 49.173 763.551 48.6744 766.385 48.6744C770.374 48.6744 773.506 49.5492 775.78 51.2986C778.072 53.0481 779.699 55.3574 780.661 58.2266ZM808.248 49.1993V54.4477H787.36V49.1993H808.248ZM793.448 39.5421H799.641V77.9607C799.641 79.7102 799.895 81.0223 800.402 81.8971C800.927 82.7543 801.592 83.3317 802.396 83.6291C803.219 83.909 804.085 84.0489 804.994 84.0489C805.677 84.0489 806.236 84.014 806.674 83.944C807.111 83.8565 807.461 83.7865 807.724 83.734L808.983 89.2974C808.563 89.4548 807.977 89.6123 807.225 89.7697C806.473 89.9447 805.519 90.0322 804.365 90.0322C802.615 90.0322 800.901 89.656 799.221 88.9038C797.559 88.1515 796.177 87.0056 795.075 85.466C793.99 83.9265 793.448 81.9846 793.448 79.6402V39.5421ZM817.564 89.5073V49.1993H823.758V89.5073H817.564ZM820.713 42.4812C819.506 42.4812 818.465 42.0701 817.591 41.2479C816.733 40.4256 816.305 39.4371 816.305 38.2825C816.305 37.1278 816.733 36.1394 817.591 35.3171C818.465 34.4949 819.506 34.0837 820.713 34.0837C821.921 34.0837 822.953 34.4949 823.81 35.3171C824.685 36.1394 825.122 37.1278 825.122 38.2825C825.122 39.4371 824.685 40.4256 823.81 41.2479C822.953 42.0701 821.921 42.4812 820.713 42.4812ZM852.631 49.1993V54.4477H831.742V49.1993H852.631ZM837.83 39.5421H844.023V77.9607C844.023 79.7102 844.277 81.0223 844.784 81.8971C845.309 82.7543 845.974 83.3317 846.779 83.6291C847.601 83.909 848.467 84.0489 849.377 84.0489C850.059 84.0489 850.619 84.014 851.056 83.944C851.493 83.8565 851.843 83.7865 852.106 83.734L853.365 89.2974C852.945 89.4548 852.359 89.6123 851.607 89.7697C850.855 89.9447 849.901 90.0322 848.747 90.0322C846.997 90.0322 845.283 89.656 843.603 88.9038C841.941 88.1515 840.559 87.0056 839.457 85.466C838.372 83.9265 837.83 81.9846 837.83 79.6402V39.5421ZM887.349 73.0272V49.1993H893.542V89.5073H887.349V82.6843H886.929C885.984 84.7312 884.515 86.472 882.52 87.9065C880.526 89.3236 878.007 90.0322 874.963 90.0322C872.443 90.0322 870.204 89.4811 868.245 88.3789C866.285 87.2592 864.746 85.5797 863.626 83.3404C862.506 81.0836 861.947 78.2407 861.947 74.8117V49.1993H868.14V74.3918C868.14 77.3309 868.962 79.6752 870.606 81.4247C872.268 83.1742 874.385 84.0489 876.957 84.0489C878.497 84.0489 880.062 83.6553 881.654 82.868C883.264 82.0808 884.611 80.8736 885.696 79.2466C886.798 77.6196 887.349 75.5465 887.349 73.0272ZM922.415 49.1993V54.4477H901.526V49.1993H922.415ZM907.615 39.5421H913.808V77.9607C913.808 79.7102 914.061 81.0223 914.569 81.8971C915.094 82.7543 915.758 83.3317 916.563 83.6291C917.385 83.909 918.251 84.0489 919.161 84.0489C919.843 84.0489 920.403 84.014 920.841 83.944C921.278 83.8565 921.628 83.7865 921.89 83.734L923.15 89.2974C922.73 89.4548 922.144 89.6123 921.392 89.7697C920.639 89.9447 919.686 90.0322 918.531 90.0322C916.782 90.0322 915.067 89.656 913.388 88.9038C911.726 88.1515 910.344 87.0056 909.242 85.466C908.157 83.9265 907.615 81.9846 907.615 79.6402V39.5421ZM948.198 90.3471C944.314 90.3471 940.964 89.4898 938.147 87.7753C935.348 86.0433 933.188 83.6291 931.666 80.5325C930.161 77.4184 929.409 73.797 929.409 69.6682C929.409 65.5394 930.161 61.9005 931.666 58.7514C933.188 55.5849 935.304 53.1181 938.016 51.3511C940.745 49.5666 943.929 48.6744 947.568 48.6744C949.668 48.6744 951.741 49.0243 953.788 49.7241C955.835 50.4239 957.698 51.5611 959.377 53.1356C961.057 54.6926 962.395 56.757 963.392 59.3288C964.39 61.9005 964.888 65.0671 964.888 68.8284V71.4527H933.817V66.0993H958.59C958.59 63.8249 958.135 61.7955 957.226 60.0111C956.333 58.2266 955.056 56.8182 953.394 55.7861C951.75 54.7539 949.808 54.2378 947.568 54.2378C945.102 54.2378 942.967 54.8501 941.165 56.0747C939.381 57.2819 938.007 58.8564 937.045 60.7983C936.083 62.7402 935.602 64.8221 935.602 67.044V70.6129C935.602 73.657 936.127 76.2375 937.176 78.3544C938.244 80.4538 939.722 82.0545 941.611 83.1567C943.501 84.2414 945.696 84.7837 948.198 84.7837C949.825 84.7837 951.295 84.5563 952.607 84.1014C953.936 83.6291 955.082 82.9293 956.045 82.002C957.007 81.0573 957.75 79.8852 958.275 78.4856L964.258 80.1651C963.629 82.1945 962.57 83.979 961.083 85.5185C959.596 87.0406 957.759 88.2302 955.572 89.0874C953.385 89.9272 950.927 90.3471 948.198 90.3471Z" fill="black"/>
<path d="M213.621 161.549V123.049H235.251V129.676H219.361L221.181 128.019V141.039L219.361 138.939H234.201V145.566H219.361L221.181 143.466V161.549H213.621ZM241.852 161.549V137.656H249.015V141.086C249.902 139.748 250.983 138.722 252.258 138.006C253.55 137.275 254.934 136.909 256.412 136.909C257.252 136.909 258.123 137.034 259.025 137.283C259.927 137.532 260.682 137.85 261.288 138.239L258.302 144.283C257.773 143.925 257.151 143.645 256.435 143.443C255.735 143.225 255.082 143.116 254.475 143.116C253.542 143.116 252.655 143.357 251.815 143.839C250.975 144.322 250.298 144.952 249.785 145.729C249.272 146.492 249.015 147.316 249.015 148.203V161.549H241.852ZM274.875 162.296C272.682 162.296 270.683 161.752 268.878 160.663C267.089 159.558 265.666 158.049 264.608 156.136C263.566 154.207 263.045 152.014 263.045 149.556C263.045 147.16 263.551 145.014 264.562 143.116C265.573 141.203 266.965 139.694 268.738 138.589C270.527 137.469 272.573 136.909 274.875 136.909C276.571 136.909 278.149 137.236 279.612 137.889C281.089 138.527 282.295 139.422 283.228 140.573V137.656H290.392V161.549H283.228V158.399C282.139 159.659 280.887 160.624 279.472 161.293C278.056 161.962 276.524 162.296 274.875 162.296ZM276.998 156.206C278.243 156.206 279.347 155.926 280.312 155.366C281.276 154.79 282.031 154.005 282.575 153.009C283.119 152.014 283.392 150.878 283.392 149.603C283.392 148.312 283.112 147.176 282.552 146.196C282.007 145.2 281.253 144.423 280.288 143.863C279.339 143.287 278.243 142.999 276.998 142.999C275.769 142.999 274.673 143.287 273.708 143.863C272.744 144.423 271.982 145.2 271.422 146.196C270.862 147.192 270.582 148.327 270.582 149.603C270.582 150.878 270.854 152.014 271.398 153.009C271.958 154.005 272.721 154.79 273.685 155.366C274.649 155.926 275.754 156.206 276.998 156.206ZM298.818 161.549V137.656H305.981V140.316C306.899 139.289 308.042 138.465 309.411 137.843C310.796 137.22 312.32 136.909 313.985 136.909C315.82 136.909 317.43 137.314 318.815 138.123C320.215 138.916 321.311 140.028 322.105 141.459C322.898 142.875 323.295 144.532 323.295 146.429V161.549H316.131V147.946C316.131 146.235 315.68 144.905 314.778 143.956C313.891 142.992 312.67 142.509 311.115 142.509C310.057 142.509 309.139 142.727 308.361 143.163C307.599 143.583 307.008 144.166 306.588 144.913C306.183 145.644 305.981 146.476 305.981 147.409V161.549H298.818ZM342.443 162.296C340.623 162.296 338.904 161.969 337.286 161.316C335.684 160.663 334.268 159.76 333.039 158.609C331.81 157.443 330.846 156.097 330.146 154.573C329.446 153.033 329.096 151.384 329.096 149.626C329.096 147.93 329.423 146.32 330.076 144.796C330.745 143.272 331.678 141.918 332.876 140.736C334.089 139.554 335.505 138.62 337.123 137.936C338.756 137.252 340.521 136.909 342.419 136.909C343.959 136.909 345.437 137.127 346.853 137.563C348.284 137.998 349.435 138.558 350.306 139.243L347.856 144.073C346.689 143.217 345.243 142.789 343.516 142.789C342.038 142.789 340.786 143.116 339.759 143.769C338.733 144.423 337.947 145.27 337.403 146.313C336.874 147.355 336.609 148.452 336.609 149.603C336.609 150.863 336.897 152.014 337.473 153.056C338.048 154.083 338.857 154.899 339.899 155.506C340.957 156.113 342.178 156.416 343.563 156.416C344.418 156.416 345.219 156.299 345.966 156.066C346.713 155.833 347.343 155.522 347.856 155.133L350.306 159.963C349.419 160.632 348.276 161.184 346.876 161.619C345.476 162.07 343.998 162.296 342.443 162.296ZM367.583 162.296C365.001 162.296 362.683 161.744 360.63 160.639C358.592 159.519 356.974 158.003 355.776 156.089C354.579 154.176 353.98 152.014 353.98 149.603C353.98 147.829 354.314 146.173 354.983 144.633C355.668 143.093 356.616 141.747 357.83 140.596C359.043 139.429 360.451 138.527 362.053 137.889C363.655 137.236 365.39 136.909 367.256 136.909C369.745 136.909 371.923 137.43 373.79 138.473C375.672 139.499 377.134 140.93 378.176 142.766C379.234 144.602 379.763 146.74 379.763 149.183C379.763 149.385 379.755 149.564 379.74 149.719C379.74 149.859 379.716 150.132 379.67 150.536H361.353C361.353 151.749 361.625 152.807 362.17 153.709C362.73 154.612 363.508 155.319 364.503 155.833C365.499 156.33 366.658 156.579 367.98 156.579C369.224 156.579 370.321 156.338 371.27 155.856C372.234 155.374 373.16 154.604 374.046 153.546L379.203 156.136C378.083 158.065 376.496 159.574 374.443 160.663C372.39 161.752 370.103 162.296 367.583 162.296ZM361.61 146.569H372.716C372.561 145.652 372.226 144.858 371.713 144.189C371.215 143.52 370.578 143.007 369.8 142.649C369.022 142.292 368.143 142.113 367.163 142.113C366.121 142.113 365.203 142.292 364.41 142.649C363.616 143.007 362.979 143.52 362.496 144.189C362.014 144.858 361.719 145.652 361.61 146.569Z" fill="black"/>
</svg>
