<?xml version="1.0" encoding="UTF-8" standalone="no"?>
<!-- Created with Inkscape (http://www.inkscape.org/) -->

<svg
   version="1.1"
   id="svg1"
   width="1133.8533"
   height="205.86667"
   viewBox="0 0 1133.8533 205.86667"
   sodipodi:docname="JGI_MASTER_COUNTRY_LOGO_WHITE_7_France.eps"
   xmlns:inkscape="http://www.inkscape.org/namespaces/inkscape"
   xmlns:sodipodi="http://sodipodi.sourceforge.net/DTD/sodipodi-0.dtd"
   xmlns="http://www.w3.org/2000/svg"
   xmlns:svg="http://www.w3.org/2000/svg">
  <defs
     id="defs1" />
  <sodipodi:namedview
     id="namedview1"
     pagecolor="#ffffff"
     bordercolor="#000000"
     borderopacity="0.25"
     inkscape:showpageshadow="2"
     inkscape:pageopacity="0.0"
     inkscape:pagecheckerboard="0"
     inkscape:deskcolor="#d1d1d1">
    <inkscape:page
       x="0"
       y="0"
       inkscape:label="1"
       id="page1"
       width="1133.8533"
       height="205.86667"
       margin="0"
       bleed="0" />
  </sodipodi:namedview>
  <g
     id="g1"
     inkscape:groupmode="layer"
     inkscape:label="1">
    <path
       id="path1"
       d="m 683.555,408.23 2.14,-35.21 2.77,0.98 -2.531,33.641 -2.379,0.589"
       style="fill:#ffffff;fill-opacity:1;fill-rule:nonzero;stroke:none"
       transform="matrix(0.13333333,0,0,-0.13333333,0,205.86667)" />
    <path
       id="path2"
       d="M 1410.65,782.063 C 1407.61,972.555 1335.32,1385.38 805.035,1496.96 275.863,1608.31 9.25,1186.7 62.4023,1183.35 c 59.3207,-3.74 131.7737,88.63 160.0077,117.72 0.836,-11.77 2.75,-23.16 6.406,-32.61 2.485,-6.4 6.766,-12.62 15.891,-4.85 10.727,9.13 22.359,25.18 31.117,43.07 4.481,-14.28 11.063,-28.06 20.766,-38.01 20.055,-19.21 37.84,89.88 39.433,90.17 1.524,4.55 119.532,-105.49 284.973,-12.9 0,0 15.391,-20.55 58.543,-52.22 -9.344,-12.69 -13.441,-27.03 -9.086,-31.7 3.508,-3.77 19.715,2.04 32.406,15.41 2.309,-1.54 4.789,-3.13 7.207,-4.71 -2.043,-3.52 -3.824,-7.45 -4.906,-11.77 -4.64,-18.55 -4.105,-34.96 4.664,-36.85 6.696,-1.45 16.832,11.76 21.477,30.3 0.379,1.51 0.547,3.01 0.762,4.5 10.648,-6.44 22.195,-13.1 34.738,-19.95 -8.656,-2.35 -18.043,-6.44 -25.461,-13.76 -18.563,-18.33 -23.543,-42.11 -17.488,-49.53 3.281,-4.01 31.175,-1.47 49.738,16.86 1.16,1.14 2.035,2.44 3.047,3.66 2.82,-22.11 12.968,-42.46 24.457,-40.8 8.535,1.23 21.976,22.16 20.797,48.22 -0.121,2.71 -0.59,5.3 -1.129,7.87 10.609,-5.08 21.578,-10.19 33.238,-15.37 -0.344,-6.95 0.188,-14.73 2.855,-22.42 7.649,-22.06 18.653,-36.69 29.399,-34.56 6.434,1.27 8.492,20.95 2.551,42.12 42.105,-17.42 90.304,-35.17 145.355,-52.69 0.37,-4.85 0.64,-9.67 0.79,-14.42 0.58,-19.61 -4.56,-27.24 -28.19,-27.77 -4.18,-0.1 -8.389,0.19 -12.557,-0.12 -18.285,-1.33 -34.754,-30.44 -27.39,-47.16 1.57,-3.57 0.878,-9.29 -0.899,-12.99 -8.144,-16.94 -6.961,-23.11 7.758,-32.953 0.558,-0.371 6.109,-1.117 0.867,-5.485 -8.422,-6.929 -16.398,-16.472 -26.215,-19.086 -16.886,-4.496 -35.148,-4.687 -52.859,-4.98 -21.641,-0.359 -43.551,-0.781 -64.899,2.102 -37.492,5.062 -70.211,-8.676 -103.277,-22.122 -10.871,-4.418 -17.902,-18.671 -16.137,-33.66 4,-9.738 9.789,31.16 27.395,18.231 13.101,-7.52 17.348,-0.871 24.207,5.894 19.828,18.821 89.508,-12.148 107.953,-26.722 1.367,4.097 4.469,9.089 5.641,8.785 13.238,-3.469 24.468,2.847 36.465,6.172 6.136,1.695 13.132,0.293 19.734,0.293 0.461,-1.493 0.922,-2.989 1.383,-4.485 -3.934,-1.918 -7.782,-4.062 -11.825,-5.715 -9.277,-3.789 -19.714,-5.828 -27.703,-11.406 -7.316,-5.109 -12.964,-12.734 -18.757,-19.922 -8.766,-10.867 -23.372,-16.836 -36.739,-12.816 -9.82,2.953 -30.801,-1.176 -33.867,-4.246 -3,-3 -0.855,-6.77 3.606,-5.313 15.296,2.508 18.148,-9.383 28.066,-13.652 3.648,-1.574 11.738,-5.832 3.469,-12.895 -2.871,-2.453 -4.387,-7.613 5.508,-7.949 9.152,-0.308 18.218,-0.883 24.253,8.395 12,20.179 27.446,3.265 26.719,3.578 5.906,5.773 9.672,11.605 15.012,14.246 11.719,5.781 24.133,10.246 36.488,14.629 5.172,1.832 15.172,3.957 15.695,2.762 3.688,-8.426 -5.183,-8.727 -9.632,-11.895 -12.918,-9.195 -29.563,-14.801 -28.571,-35.793 0.731,-15.379 -3.836,-17.766 -18.691,-12.305 -11.984,4.407 -23.098,-2.351 -23.234,-14.129 -0.157,-13.75 19.062,-25.093 31.312,-18.574 2.891,1.539 6.57,4.239 9.027,3.508 10.797,-3.195 20.719,-5.172 28.622,5.809 1.433,3.023 6.175,0.39 6.406,0.367 5.015,8.851 7.867,15.406 11.531,23.133 8.891,18.726 26.125,28.535 46.905,26.054 3.77,-0.449 7.54,-1.101 11.32,-1.269 8.81,-0.387 18.02,-2.274 26.35,-0.406 15.24,3.418 22.76,16.773 29.47,29.246 9.08,16.859 14.62,35.875 25.22,51.582 27.02,56.605 -32.64,102.602 -11.24,125.602 -22.32,31.59 -10.83,67.5 -8.02,72.82 l 21.2,-6.18 c 23.68,-6.65 48.3,-13.24 74.18,-19.71 0,0 3.67,-18.99 15.69,-45.49 -3.35,-4.98 -6.57,-11.35 -7.56,-18.72 -2.33,-17.21 2.08,-31.565 8.31,-32.842 5.54,-1.133 10.56,8.481 14.95,21.982 14.75,-24.349 36,-50.923 66.19,-74.111 -2.92,-1 -5.84,-2.234 -8.62,-4.027 -14.58,-9.418 -20.23,-22.695 -19.55,-27.668 0.55,-4.008 16,-2.676 30.05,4.695 -0.68,-1.793 -1.27,-3.652 -1.67,-5.609 -3.52,-17 0.51,-31.852 6.01,-33.336 3.82,-1.031 10.46,7.211 15.91,19.723 11.11,-102.629 45.13,-229.508 -56.46,-318.672 C 1175.54,506.852 1227.25,396.449 1131.24,376.34 973.219,343.25 906.27,274.789 823.563,149.691 c -7.809,20.02 -21.524,41.028 -10.836,60.008 35.691,56.461 -14.293,68.289 -1.914,126.77 9.32,3.422 3.625,15.922 2.16,22.562 7.8,17.617 19.422,40.489 -0.207,51.91 -3.465,2.02 -7.938,1.039 -10.485,-2.05 -3.39,-4.129 -6.531,-9.352 -10.234,-12.922 -2.914,-3.84 -3.953,-3.867 -8.293,-2.071 -6.328,0 -11.586,-5.488 -15.785,-9.867 -4.098,-6.191 -9.653,-14.152 -11.305,-21.902 -0.777,-3.668 0.371,-7.41 2.246,-10.649 2.25,-3.871 2.356,-8.429 2.508,-12.75 -0.816,-26.41 -11.59,-51.378 -25.746,-73.332 -21.867,-35.578 -57.012,-60.949 -82.426,-93.289 -2.676,-3.398 -4.543,-7.379 -5.598,-11.578 -4.265,-16.941 -15.468,-30.832 -30.468,-31.91 -4.543,4.258 -7.383,8.34 -23.071,14.879 -8.121,4.898 -7.804,17.281 0.547,21.219 4.301,2.031 6.324,4.453 5.918,9.429 -0.316,3.934 0.481,7.973 1.024,11.922 3.629,26.352 10.945,42.231 21.484,66.66 2.953,6.848 4.625,14.25 6.656,20.68 l 6.11,28.469 c 0.539,2.762 1.265,6.672 2.066,10.57 3.816,18.711 5.488,37.59 5.824,56.582 5.203,-4.66 11.489,-10.062 14.258,-11.39 5.574,-2.68 5.945,-7.731 18.473,-5.672 -3.758,-9.231 -7.516,-18.449 -11.266,-27.68 -0.875,-1.801 0.25,-2.789 1.289,-1 5.11,9.93 9.293,22.762 13.36,30.25 0,0 0.886,0.301 1.164,0.43 0.5,0.242 1.265,0.551 1.648,0.41 -1.656,-8.777 -4.871,-25.578 -5.305,-27.617 -0.328,-1.543 1.446,-2.422 1.856,-0.383 l 5.637,28 c 0.98,-0.027 0.742,-0.02 1.722,-0.047 l 4.035,-27.773 c 0.102,-1 1.957,-1.161 1.805,0.25 -0.348,3.492 -0.668,6.98 -1.043,10.461 -0.531,4.929 -1.18,9.839 -1.594,14.769 -0.047,0.531 -0.324,2 -0.156,2.59 0,0 1.082,0.781 2.344,1.75 3.402,2.633 5.277,4.543 8.43,7.473 4.043,3.75 3.406,7.918 -1.457,10.296 2.25,6.973 0.765,9.141 -6.239,8.454 4.61,8.527 9.114,16.867 13.614,25.199 0.277,-0.11 -4.2,-10.731 2.011,-11.813 4.438,-0.777 5.285,4.571 3.703,11.793 1.68,-4.543 8.305,-9.222 10.563,-6.519 2.238,2.679 -2.567,7.57 -7.039,10.269 4.539,-2.242 9.933,0.528 9.933,3.949 0,2.961 -5.589,6.09 -11.484,3.36 2.098,4.969 1.598,9.781 -6.352,11.539 4.204,0.711 8.243,1.5 6.801,5.453 -0.695,1.906 -5.379,4.078 -12.832,0.52 6.266,4.097 9.969,8.187 8.047,10.648 -1.476,1.891 -8.875,-0.98 -10.559,-5.898 2.043,9.687 -0.992,11.878 -3.089,11.859 -2.262,-0.012 -5.457,-4.512 -0.887,-13.02 -1.543,2.309 -7.414,8.899 -10.137,4.598 -3.012,-4.738 4.645,-8.18 7.133,-8.398 -3.094,-1.379 -5.766,-4.821 -3.832,-8.442 2.684,-3.058 7.551,-0.07 8.801,2.313 -0.563,-2.731 -1.973,-9.16 -2.539,-11.903 -2.102,1.973 -6.172,0.403 -7.563,-0.718 1.449,2.5 3.551,6.507 -0.265,7.019 -3.286,0.442 -3.934,-3.238 -3.883,-6.699 -0.516,0.879 -1.539,5.18 -3.305,5.519 -4.598,0.661 -3.16,-4.441 -0.051,-9 -3.683,1.18 -5.656,-0.73 -5.422,-2.449 0.161,-1.301 2.989,-2.679 7.266,-1.832 -1.855,-1.418 -6.531,-1.859 -5.527,-4.219 0.789,-1.64 4.211,-2.691 6.644,0.731 0,0 1.106,-2.992 3.965,-1.441 2.852,1.55 0,7.14 0,7.14 0,0 5.59,-0.961 7.016,1.07 l -8.422,-31.718 c -4.969,0.468 -10.34,3.847 -14.82,8.687 -11.473,12.391 -15.223,20.481 -16.997,35.18 1.247,10.359 1,20.832 -1.023,31.269 -3.258,16.782 -9.664,32.954 -14.863,49.332 -2.508,7.911 -6.774,14.739 -13.496,19.93 -2.121,1.641 -6.598,3.371 -8.246,5.52 -3.442,4.492 -2.344,9.25 -0.254,13.82 1.796,3.938 5.625,3.707 9.164,3.668 1.894,-0.023 3.793,-0.457 5.679,-0.418 5.125,0.098 10.309,-0.059 15.356,0.664 4.234,0.606 6.93,4.367 6.039,8.274 -1.086,4.769 5.488,6.679 4.348,11.128 -2.098,5.043 0.015,8.938 -4.774,11.465 -0.152,0.086 0.27,1.492 0.586,2.207 1.375,3.153 0.508,4.867 -2.816,6.184 -1.875,0.738 -4.707,3.941 -4.426,4.406 1.476,2.438 0.14,4.555 -0.043,6.695 -0.395,4.649 -1.246,9.258 -1.734,13.903 -0.317,2.961 -0.149,5.972 -0.485,8.926 -0.277,2.461 -0.375,5.234 -1.594,7.234 -2.968,4.863 -6.109,9.73 -9.879,13.965 -2.464,2.765 -5.511,4.922 -8.878,6.465 -4.465,2.043 -8.645,3.632 -13.282,5.117 -4.203,1.344 -9.004,0.027 -13.519,1.867 -1.442,0.586 -6.133,-2.652 -9.551,1.418 -0.828,1.293 -3.676,0.418 -4.937,0 -4.297,-1.426 -7.54,-2.191 -11.774,-3.766 -4.516,-1.672 -9.316,-2.547 -13.863,-4.004 -6.051,-1.941 -9.117,-7.16 -14.524,-9.382 -2.039,-0.836 -3.836,-3.332 -4.8,-5.493 -2.325,-5.175 -4.5,-10.492 -5.918,-15.964 -0.891,-3.438 1.031,-7.375 1.05,-11.024 0.024,-4.43 -2.144,-9.039 -0.867,-13.101 1.512,-4.809 3.266,-9.348 3.324,-14.524 0.024,-1.836 1.754,-3.801 3.051,-5.433 1.692,-2.129 3.891,-3.86 5.571,-5.993 2.105,-2.671 3.73,-5.722 5.906,-8.316 1.109,-1.324 3.035,-1.93 4.492,-2.992 3.898,-2.848 7.711,-5.809 11.641,-8.613 0.683,-0.489 1.933,-0.793 2.761,-0.653 2.559,0.434 4.395,0.059 5.512,-2.68 1.156,-2.808 -0.059,-4.441 -1.906,-6.378 -23.84,-25.153 -44.074,-52.891 -49.637,-87.133 -0.008,-0.047 -0.016,-0.098 -0.023,-0.149 -1.911,-12.191 -1.688,-24.629 -0.61,-36.922 l 4.512,-51.437 c 0.019,-0.789 0.047,-1.59 0.066,-2.379 -0.367,-13.121 1.871,-25.48 9.364,-36.461 4.269,-6.262 6.66,-13.582 6.261,-21.152 -0.609,-11.59 -2.172,-23.129 -2.172,-34.739 0,-15.519 -0.906,-31.23 -3.191,-46.628 -0.836,-5.633 -1.437,-11.301 -1.453,-16.993 -0.059,-17.839 1.18,-18.257 1.863,-35.929 0.145,-3.758 1.93,-6.469 5.813,-7.071 3.629,-0.558 4.746,-2.828 4.695,-6.019 -0.047,-2.871 -0.324,-22.84 -0.605,-25.699 -0.461,-4.7 -1.364,-9.391 -1.508,-14.102 -8.699,-0.66 -17.074,-1.391 -25.203,-2.148 -1.051,0.308 -2.098,0.621 -3.153,0.871 2.485,7.109 4.469,9.32 -10.832,20.078 -12.668,8.91 -28.152,22.39 -31.433,41.531 -0.446,2.578 -0.133,10.719 -0.993,13.149 -0.851,2.402 -3.46,-1.071 -4.164,1.359 -9.918,34.18 -5.949,70.609 -8.003,106.019 -0.09,1.571 0.542,11.473 1.296,21.864 1.149,15.769 0.879,31.609 -0.195,47.386 -1.133,16.622 -1.598,60.063 1.617,93.481 0,0 8.207,-0.457 11.129,0.891 2.922,1.359 4.656,83.402 -1.633,130.386 0,0 8.145,3.168 9.813,7.184 0.68,1.644 -12.567,45.125 -16.68,117.055 -0.469,8.207 -1.98,36.101 -4.566,69.023 l 21.664,-5.617 c 0.762,-0.199 1.558,0.207 1.847,0.941 l 2.54,6.465 c 0,0 29.195,-9.367 38.668,-7.566 9.476,1.8 23.179,16.882 31.265,21.078 4.918,2.547 9.578,5.629 14.235,8.648 15.875,10.305 31.109,21.781 47.707,30.731 16.585,8.949 35.691,14.113 41.515,35.246 1.254,4.535 5.559,11.324 1.906,14.117 -5.437,4.269 -7.675,-6.309 -11.796,-8.547 -2.805,-1.519 -5.957,-1.703 -8.793,-3.074 -4.071,-1.969 -11.223,-9.641 -13.008,-4.25 -1.785,5.387 4.879,10.297 7.519,14.543 0.961,1.547 5.004,14.183 -5.836,5.926 -8.109,-8.473 -18.273,-16.188 -22.953,-26.368 -3.961,-8.613 -8.937,-14.132 -16.472,-17.867 -10.711,-5.312 -32.668,-17.629 -54.071,-25.449 -3.836,-1.402 -7.976,-1.68 -11.996,-0.945 -12.457,2.277 -20.898,8.746 -20.898,8.746 0,0 1.961,3.847 0.597,4.355 -24.035,16.895 -44.543,68.34 -66.398,88.551 -0.742,0.93 -1.488,1.691 -2.262,2.074 -13.672,6.125 -50.91,-5.078 -44.129,13.817 1.907,3.933 5,11.074 15.348,12.242 6.582,0.715 15.531,3.672 18.148,6.293 2.457,2.508 3.309,6.156 2.516,9.613 -0.742,3.207 -1.398,3.945 -0.109,5.215 1.242,1.227 2.148,3.301 1.105,4.746 -0.844,1.125 -2.379,1.797 -3.258,2.078 1.91,0.137 3.899,0.945 5.008,2.11 1.672,1.777 1.418,3.289 0.684,6.765 -0.582,2.746 -0.852,3.692 -0.426,4.375 1.16,1.813 4.484,2.406 6.852,5.399 2.566,3.251 0.476,6.391 -2.747,9.211 -2.972,2.61 -10.558,11.09 -11.523,15.88 -0.863,4.4 -0.363,9.99 -2.391,15.48 -2.16,5.89 -8.183,12.86 -12.168,15.95 -3.429,2.65 -4.992,4.25 -4.777,6.99 0.586,7.82 -5.473,13.95 -12.93,14.2 -7.336,0.21 -10.625,-1.51 -27.054,-1.38 -15.207,0.11 -26.16,-3.42 -36.504,-12.19 -7.457,-6.3 -15.867,-16.02 -20.094,-31.22 -0.078,-0.23 -0.168,-0.37 -0.25,-0.61 -9.379,-28.42 -29.949,-13.65 -52.719,-36.854 -12.75,-11.586 -18.351,-36.789 -3.23,-61.981 6.988,-11.64 11.922,-17.621 14.008,-27.488 0.504,-2.52 2.238,-0.996 2.847,-0.66 8.074,4.453 10.18,5.82 16.809,10.609 11.652,8.414 16.676,26.067 8.308,44.16 -9.496,20.539 0.899,28.121 0.899,28.121 4.101,3.856 9.883,5.879 15.574,6.942 0.527,-1.77 2.637,-7.313 10.473,-16.989 9.047,-11.121 14.937,-20.062 12.379,-31.804 -2.219,-10.188 -5.278,-23.024 -18.961,-28.028 -13.688,-5.007 -29.367,-15.656 -32.914,-24.101 -6.629,-15.82 -9.282,-29.93 -6.321,-46.871 3.782,-21.645 1.211,-32 3.782,-57.715 0.343,-3.438 3.019,-0.066 3.05,-1.473 0.598,-27.285 1.414,-54.453 5.043,-59.922 6.703,-10.101 13.137,-8.804 15.188,-13.738 6.504,-20.437 -0.399,-24.73 -1.543,-47.402 -1,-19.797 -2.059,-31.938 -5.731,-50.16 -0.332,-1.664 6.278,-4.434 6.59,-4.297 -3.914,-27.164 2.149,-50.922 -3.613,-72.188 l -6.91,-70.832 3.609,-0.64 c -8.238,-26.118 -21.683,-78.59 -27.066,-115.329 -4.735,-18.492 -11.645,-29.648 -12.449,-50.66 -0.481,-12.531 1.421,-42.422 2.332,-50.422 0.324,-2.839 0.578,-5.777 0.722,-8.617 -10.082,13.25 -24.312,27.188 -46.082,41.129 -44.219,28.32 -96.246,46.699 -147.4646,65.762 -16.75,6.226 -57.0469,18.609 -19.875,-27.512 C 130.453,215.43 383.336,-37.5586 788.34,44.3984 1298.33,147.609 1413.59,597.805 1410.65,782.063 Z M 433.508,188.352 c 0.129,-0.973 -0.856,-0.473 -0.789,-2.223 0.32,-9.399 -0.153,-20.219 -3.918,-36.84 -6.863,0.102 1.949,-16.91 -9.039,-17.359 -0.246,0.058 -0.5,0.121 -0.742,0.191 -5.579,1.891 -48.094,16.07 -66.684,14.969 -3.211,-0.192 -7.926,6.629 -8.184,10.43 -0.953,14.351 -8.074,20.191 -21.754,23.8 -7.546,1.981 -19.812,19.559 -20.328,20.192 -6.047,7.418 -8.132,22.597 -10.324,30.09 -0.406,1.41 -3.867,2.808 -4.164,4.218 -5.238,24.559 10.492,57.34 12.961,66.262 2.516,9.066 7.328,17.938 12.68,25.828 26.218,52.75 39.324,105.762 47.199,128.988 l 8.113,-1.437 9.473,40.078 c 0.23,0.082 0.445,0.199 0.691,0.262 l 4.723,-41.25 6.808,0.551 c 1.989,-34.973 3.547,-104.02 17.106,-149.172 1.176,-17 1.934,-36.45 4.133,-55.739 0.926,-8.179 3.965,-16.453 7.609,-23.91 8.598,-17.621 13.102,-27.699 14.43,-37.929 z m 255.402,193.937 11.301,46.883 c 0,0 2.977,-1.793 5.949,-0.953 0,0 -4.523,-6.66 0,-10.59 0,0 -5.113,1.43 -6.898,-1.309 -1.785,-2.738 0.238,-5.949 5.472,-5.121 z M 674.609,123.852 c -15.816,-0.5 -32.199,-1.102 -48.668,-1.813 -0.171,0.16 -0.339,0.332 -0.515,0.481 13.66,3.031 25.453,13.332 30.027,27.351 3.606,-14.082 10.09,-22.531 19.156,-26.019 z m 134.012,2.937 c -0.109,-0.168 -0.211,-0.32 -0.316,-0.488 0,0 -26.047,-0.082 -64.43,-0.77 20.703,12.047 30.355,34.239 -1.059,48.43 12.235,5.039 23.36,8.66 35.098,15.109 11.117,-19.91 26.781,-39.308 30.707,-62.281 z m 144.047,90.02 C 942.465,204.77 933.172,190.551 925.699,177.832 914.094,158.07 896.316,142.672 874.977,134.301 l -0.27,-0.11 c 15.945,34.098 44.875,61.278 77.961,82.618 z m 187.902,89.781 c -64.61,-52.02 -128.7,-92.539 -176.953,-120.211 18.391,98.012 174.463,122.801 176.953,120.211 z m -121.45,892.61 c -225.597,21.92 -359.796,156.66 -359.796,156.66 247.973,44.28 320.625,-76.92 349.686,-133.83 l -1.82,0.87 c 0.81,-0.47 1.45,-1.07 2.2,-1.59 6.83,-13.47 9.73,-22.11 9.73,-22.11 z M 1295.3,973.313 c -57.68,47.047 -65.27,100.177 -65.27,100.177 40.98,-9.11 65.27,-97.142 65.27,-100.177"
       style="fill:#ffffff;fill-opacity:1;fill-rule:nonzero;stroke:none"
       transform="matrix(0.13333333,0,0,-0.13333333,0,205.86667)" />
    <text
       id="text2"
       xml:space="preserve"
       transform="matrix(1.3333333,0,0,1.3333333,208.37067,92.405733)"><tspan
         id="tspan2"
         style="font-variant:normal;font-weight:normal;font-size:55.4236px;font-family:Lapture-Regular;writing-mode:lr-tb;fill:#ffffff;fill-opacity:1;fill-rule:nonzero;stroke:none"
         x="0"
         dx="0 0 0 0 0 0 0 0 0 0 0 0 0 0 0 0 -0.33852512 0 0 0 0 -0.44599593"
         y="0">Jane Goodall Institute </tspan><tspan
         id="tspan3"
         style="font-variant:normal;font-weight:bold;font-size:35px;font-family:Spartan-Bold;writing-mode:lr-tb;fill:#ffffff;fill-opacity:1;fill-rule:nonzero;stroke:none"
         x="0"
         dx="0 0 -0.26248774 0.017016619"
         y="56.8578">France</tspan></text>
  </g>
</svg>
