<svg width="492" height="246" viewBox="0 0 492 246" fill="none" xmlns="http://www.w3.org/2000/svg">
<path d="M307.887 179.118H287.294C284.62 179.118 282.574 176.733 282.979 174.094L284.802 161.946C285.126 159.805 286.96 158.222 289.117 158.222H355.334C358.008 158.222 360.054 160.607 359.649 163.245L357.826 175.393C357.501 177.535 355.668 179.118 353.51 179.118H331.6L322.383 240.559C322.058 242.701 320.225 244.284 318.067 244.284H303.187C300.513 244.284 298.467 241.899 298.872 239.26L307.898 179.128L307.887 179.118Z" fill="#022A22"/>
<path d="M186.437 161.946C186.761 159.805 188.594 158.222 190.752 158.222H223.662C245.299 158.222 257.556 169.406 254.699 188.465L254.659 188.709C251.62 208.996 234.491 219.693 213.219 219.693H201.479L198.349 240.559C198.025 242.701 196.191 244.284 194.034 244.284H179.154C176.479 244.284 174.433 241.899 174.838 239.26L186.437 161.946ZM215.539 200.999C223.976 200.999 229.77 196.574 230.783 189.815L230.824 189.571C231.928 182.193 227.39 178.255 218.831 178.255H207.709L204.295 200.999H215.539Z" fill="#022A22"/>
<path d="M441.071 158.213H455.951C458.625 158.213 460.671 160.598 460.266 163.236L451.241 223.369H487.605C490.279 223.369 492.326 225.754 491.92 228.392L490.097 240.541C489.773 242.682 487.94 244.265 485.782 244.265H429.462C426.788 244.265 424.742 241.88 425.147 239.242L436.745 161.927C437.069 159.786 438.903 158.203 441.06 158.203L441.071 158.213Z" fill="#022A22"/>
<path d="M9.0091 201.497L9.04962 201.254C12.8178 176.176 34.9506 156.497 60.8719 156.497C76.2181 156.497 85.9119 162.19 92.101 170.736C93.5293 172.705 93.0228 175.465 91.0273 176.856L78.0312 185.919C76.1674 187.218 73.6452 186.852 72.1764 185.117C68.5703 180.854 64.0019 178.266 57.357 178.266C45.3739 178.266 35.4166 188.476 33.5325 201.01L33.492 201.254C31.5573 214.163 38.4757 224.241 50.4588 224.241C58.0559 224.241 63.4549 221.206 68.6412 216.436C70.2417 214.965 72.6626 214.853 74.3644 216.213L83.6126 223.642C85.6486 225.276 85.7904 228.3 83.957 230.158C74.7695 239.474 63.3233 246 46.4577 246C22.0153 246 5.14978 227.184 9.0091 201.497Z" fill="#022A22"/>
<path d="M131.96 157.908H148.937C150.913 157.908 152.635 159.237 153.151 161.145L174.21 239.068C174.96 241.849 172.873 244.589 169.996 244.589H153.668C151.672 244.589 149.93 243.24 149.434 241.301L146.344 229.224H113.342L106.171 242.326C105.401 243.727 103.932 244.599 102.342 244.599H87.5224C84.1695 244.599 82.0626 240.966 83.7339 238.053L128.172 160.13C128.952 158.77 130.4 157.928 131.96 157.928V157.908ZM142.302 210.651L136.438 186.182L123.107 210.651H142.302Z" fill="#022A22"/>
<path d="M379.365 157.908H396.342C398.317 157.908 400.039 159.237 400.555 161.145L421.615 239.068C422.364 241.849 420.277 244.589 417.401 244.589H401.072C399.077 244.589 397.334 243.24 396.838 241.301L393.748 229.224H360.747L353.575 242.326C352.805 243.727 351.336 244.599 349.746 244.599H334.927C331.574 244.599 329.467 240.966 331.138 238.053L375.576 160.13C376.356 158.77 377.805 157.928 379.365 157.928V157.908ZM389.697 210.651L383.832 186.182L370.501 210.651H389.697Z" fill="#022A22"/>
<path d="M380.467 66.9019L388.176 6.28251C388.631 2.69996 391.67 0.010498 395.276 0.010498H424.115C428.43 0.010498 431.763 3.80618 431.216 8.08902L414.927 136.28C414.472 139.862 411.433 142.552 407.827 142.552H387.102C384.904 142.552 382.817 141.537 381.46 139.801L331.228 75.5183L323.509 136.29C323.053 139.872 320.014 142.562 316.408 142.562H287.57C283.255 142.562 279.922 138.766 280.469 134.483L296.757 6.29266C297.203 2.69996 300.242 0.010498 303.848 0.010498H324.563C326.761 0.010498 328.837 1.02539 330.195 2.7507L380.457 66.9019H380.467Z" fill="#022A22"/>
<path d="M445.162 6.28251L428.873 134.473C428.326 138.766 431.659 142.552 435.974 142.552H464.813C468.419 142.552 471.458 139.862 471.913 136.28L488.202 8.08901C488.759 3.80618 485.426 0.010498 481.111 0.010498H452.272C448.666 0.010498 445.627 2.69995 445.172 6.28251H445.162Z" fill="#022A22"/>
<path d="M80.5632 1.42236C39.4072 1.42236 5.7976 30.844 0.641699 71.3685C-4.49394 111.792 21.6502 141.132 62.7961 141.132C103.942 141.132 137.552 111.792 142.687 71.3685C147.853 30.844 121.719 1.42236 80.5632 1.42236ZM101.167 71.3685C98.8165 89.8801 85.3848 102.313 67.7393 102.313C50.0938 102.313 39.8225 89.8801 42.1826 71.3685C44.5529 52.7555 57.9948 40.252 75.6302 40.252C93.2656 40.252 103.537 52.7555 101.167 71.3685Z" fill="#022A22"/>
<path d="M276.023 0.0101489H248.754C246.232 0.0101489 243.892 1.33965 242.595 3.51152L189.669 92.5985L178.699 6.27201C178.243 2.68946 175.204 0 171.598 0H142.759C138.444 0 135.112 3.79569 135.659 8.07852L136.165 12.0569C136.712 12.6354 137.269 13.2037 137.796 13.8126C151.197 29.0563 156.981 50.0036 154.084 72.8081C152.939 81.8102 150.549 90.3251 147.115 98.2108L151.947 136.269C152.403 139.852 155.441 142.541 159.047 142.541H207.79C210.434 142.541 212.865 141.08 214.111 138.745L282.343 10.565C284.886 5.78487 281.432 0.0101489 276.023 0.0101489Z" fill="#022A22"/>
<path d="M102.046 36.8119C106.958 36.8119 110.94 32.8225 110.94 27.9012C110.94 22.9799 106.958 18.9905 102.046 18.9905C97.1342 18.9905 93.1523 22.9799 93.1523 27.9012C93.1523 32.8225 97.1342 36.8119 102.046 36.8119Z" fill="#32EB96"/>
<path d="M278.975 158.213H263.974C261.816 158.213 259.973 159.796 259.659 161.937L259.415 163.592C263.234 169.082 266.567 177.628 264.723 189.959L264.683 190.212C263.133 200.554 258.514 209.312 251.565 215.95L248.07 239.242C247.675 241.89 249.722 244.265 252.386 244.265H267.387C269.545 244.265 271.388 242.682 271.702 240.541L283.301 163.226C283.696 160.577 281.65 158.203 278.986 158.203L278.975 158.213Z" fill="#022A22"/>
</svg>
